<svg width="24" height="24" viewBox="0 0 24 24" fill="none" xmlns="http://www.w3.org/2000/svg">
<path d="M12 24C18.6274 24 24 18.6274 24 12C24 5.37258 18.6274 0 12 0C5.37258 0 0 5.37258 0 12C0 18.6274 5.37258 24 12 24Z" fill="#F54631"/>
<path d="M15.9537 14.0751H12.0891V14.8548H15.9537V14.0751Z" fill="#690609"/>
<path d="M2.48174 6.20431H3.11989C3.41572 6.1985 3.71164 6.21042 4.00604 6.24C4.20712 6.25061 4.39829 6.33062 4.54698 6.4664C4.69567 6.60218 4.79266 6.78533 4.82143 6.98461C4.86237 7.1591 4.88608 7.33719 4.8922 7.51631V9.36246C4.92137 9.57267 4.88618 9.78679 4.79127 9.97661C4.69636 10.1664 4.54618 10.3231 4.36051 10.4258C4.53525 10.5402 4.67653 10.6989 4.76993 10.8857C4.86334 11.0726 4.90553 11.2808 4.8922 11.4892V13.5452C4.886 13.701 4.86226 13.8557 4.82143 14.0062C4.7795 14.2285 4.65997 14.4288 4.48416 14.5712C4.30834 14.7137 4.08766 14.7891 3.86143 14.784H2.44604C2.48174 11.9834 2.48174 9.11138 2.48174 6.20431ZM3.26143 10.8135V14.0751H3.61528C4.04051 14.1108 4.11189 13.8978 4.14697 13.5434V11.416C4.15796 11.2935 4.13339 11.1704 4.0762 11.0615C4.04837 10.9899 3.99976 10.9281 3.9366 10.8843C3.87344 10.8404 3.79862 10.8164 3.72174 10.8154C3.56889 10.797 3.41442 10.7964 3.26143 10.8135ZM3.26143 7.02031V10.1046H3.65158C3.74855 10.1092 3.84406 10.0797 3.92168 10.0215C3.9993 9.96315 4.05416 9.87962 4.07681 9.78523C4.10824 9.70722 4.12048 9.6228 4.11251 9.53908V7.48062C4.12746 7.38041 4.102 7.27837 4.04174 7.19692C3.97097 7.12615 3.86451 7.01969 3.75804 7.01969L3.26143 7.02031Z" fill="#FEFFFF"/>
<path d="M19.7469 13.1176C19.6761 13.72 19.6054 14.2523 19.5697 14.8548H18.8607C18.8551 14.7471 18.8671 14.6392 18.8964 14.5354C19.1801 12.1243 19.4281 9.67817 19.7118 7.26771C19.7475 6.94833 19.7826 6.66525 19.8183 6.38156C19.8183 6.2751 19.854 6.24002 19.9598 6.24002H20.4915C20.598 6.24002 20.633 6.24002 20.633 6.38156C20.7746 7.94156 20.9524 9.50156 21.094 11.0259C21.2355 12.2665 21.3401 13.5077 21.4841 14.7483V14.8899H20.7069C20.6712 14.5705 20.6712 14.2874 20.6361 13.9668C20.6361 13.7539 20.6004 13.5059 20.6004 13.2929C20.6004 13.1865 20.5647 13.1514 20.4589 13.1514C20.2228 13.1214 19.9847 13.1101 19.7469 13.1176ZM20.2435 8.54402C20.102 9.82033 19.9598 11.0609 19.8183 12.3373H20.5272C20.4207 11.0609 20.3143 9.78464 20.2435 8.54402Z" fill="#FEFFFF"/>
<path d="M8.04799 14.8548H7.23507C7.19938 14.2874 7.12861 13.72 7.09353 13.1175H6.34892C6.31322 13.1175 6.24245 13.224 6.24245 13.2591C6.17168 13.7557 6.13599 14.2166 6.10092 14.7126V14.8197H5.38892L6.34645 6.20432H7.09107C7.12676 6.20432 7.16184 6.27508 7.19753 6.34585C7.2683 6.91324 7.33907 7.48062 7.37476 8.04739C7.55199 9.78462 7.72922 11.4862 7.94215 13.1883C7.94153 13.7206 8.0123 14.2523 8.04799 14.8548ZM7.05538 12.3379C6.94892 11.0615 6.87815 9.82093 6.77169 8.54462H6.73599C6.59445 9.82093 6.48984 11.0615 6.34584 12.3379H7.05538Z" fill="#FEFFFF"/>
<path d="M13.4719 11.4862H14.2516V12.0886C14.253 12.2482 14.2893 12.4055 14.3581 12.5495C14.3855 12.6362 14.4443 12.7096 14.523 12.7551C14.6016 12.8006 14.6945 12.8151 14.7833 12.7957C14.8701 12.7915 14.9529 12.7574 15.0174 12.6992C15.082 12.641 15.1245 12.5622 15.1378 12.4763C15.2339 12.0588 15.184 11.6209 14.9962 11.2357C14.6768 10.5619 14.3224 9.9237 13.9679 9.25047C13.6838 8.79329 13.5362 8.26441 13.5427 7.72616C13.5278 7.39378 13.6013 7.06339 13.7556 6.76862C13.8527 6.56583 14.011 6.39861 14.2082 6.29053C14.4054 6.18245 14.6315 6.13895 14.8547 6.16616C15.0684 6.16986 15.2755 6.24049 15.447 6.36811C15.6184 6.49572 15.7455 6.6739 15.8104 6.87755C15.9292 7.24339 15.9772 7.6285 15.9519 8.01231H15.1735V7.58708C15.181 7.46777 15.169 7.34803 15.1378 7.23262C15.1248 7.15602 15.0861 7.08614 15.028 7.03455C14.9699 6.98296 14.896 6.95275 14.8184 6.94893C14.7309 6.94173 14.6432 6.96144 14.5672 7.00544C14.4912 7.04943 14.4305 7.1156 14.3932 7.19508C14.349 7.29593 14.325 7.40442 14.3224 7.51447C14.2931 7.93574 14.392 8.356 14.6061 8.72001C14.9605 9.35816 15.2799 10.032 15.6344 10.7052C15.7956 10.9814 15.9003 11.2867 15.9426 11.6036C15.9848 11.9205 15.9637 12.2427 15.8805 12.5514C15.8379 12.8429 15.6863 13.1073 15.4562 13.2913C15.2262 13.4753 14.9349 13.5652 14.6412 13.5428C14.3533 13.5395 14.0772 13.4285 13.8671 13.2316C13.6571 13.0348 13.5284 12.7664 13.5064 12.4794C13.4719 12.1243 13.5076 11.8055 13.4719 11.4862Z" fill="#FEFFFF"/>
<path d="M18.081 14.8548H17.3007V6.98399H16.4854V6.23938H18.8607V6.98399H18.1161C18.081 9.60738 18.081 12.1957 18.081 14.8548Z" fill="#FEFFFF"/>
<path d="M12.1248 6.23938H12.9044V13.4394H12.1248V6.23938Z" fill="#FEFFFF"/>
<path d="M11.345 14.568V14.5323V14.4966C11.2906 14.4339 11.2499 14.3605 11.2255 14.2812C11.2011 14.2018 11.1936 14.1182 11.2035 14.0357V11.8413C11.2343 11.5574 11.1721 11.2713 11.0263 11.0259C10.9418 10.9108 10.8469 10.8039 10.7426 10.7065C10.887 10.6262 11.0064 10.5075 11.0876 10.3636C11.1688 10.2198 11.2087 10.0562 11.2029 9.8911C11.2029 9.07571 11.2386 8.22464 11.2029 7.40925C11.2146 7.27371 11.1989 7.1372 11.1568 7.00785C11.1146 6.87851 11.0468 6.75898 10.9575 6.6564C10.8681 6.55383 10.759 6.47031 10.6366 6.41082C10.5143 6.35134 10.3812 6.31711 10.2453 6.31017C9.78441 6.27448 9.2878 6.31017 8.7561 6.31017V14.9256H9.5358V11.1317H10.0324C10.1249 11.1293 10.2153 11.1602 10.2869 11.2189C10.3585 11.2775 10.4067 11.3599 10.4226 11.4511C10.4519 11.5549 10.4639 11.6628 10.4583 11.7705V14.1459C10.4525 14.3004 10.4645 14.455 10.4939 14.6068C10.5081 14.7018 10.5547 14.789 10.6258 14.8536C10.6969 14.9182 10.7882 14.9562 10.8841 14.9613C11.0504 14.9567 11.2168 14.9686 11.3807 14.9969V14.8554C11.3549 14.7619 11.3429 14.665 11.345 14.568ZM10.3524 9.71079C10.3459 9.82033 10.322 9.92814 10.2816 10.0302C10.2501 10.1066 10.1957 10.1713 10.1258 10.2154C10.0559 10.2595 9.97401 10.2808 9.89149 10.2763H9.46626V7.01479C9.66669 6.99708 9.86829 6.99708 10.0687 7.01479C10.1752 7.01479 10.2459 7.15633 10.3149 7.26094C10.3463 7.33896 10.3585 7.42337 10.3506 7.5071L10.3524 9.71079Z" fill="#FEFFFF"/>
<path d="M2.97746 16.7335C2.98857 16.9598 2.92641 17.1836 2.80023 17.3717C2.74549 17.4499 2.67 17.5113 2.58226 17.5489C2.49451 17.5865 2.39801 17.5989 2.30362 17.5846C2.23077 17.5928 2.1571 17.58 2.09131 17.5477V17.264C2.15606 17.3033 2.22884 17.3275 2.30423 17.3348C2.55039 17.3348 2.65869 17.1218 2.65869 16.6966V15.2092H2.94239L2.97808 16.7335H2.97746Z" fill="white"/>
<path d="M5.21194 17.5477H4.89255L4.6464 16.9095H3.65132L3.43901 17.5477H3.11963L4.00578 15.2092H4.32517L5.21194 17.5477ZM4.57378 16.6615L4.21932 15.6689C4.21932 15.6332 4.18363 15.5982 4.18363 15.5274C4.18363 15.5982 4.18363 15.6338 4.14794 15.6689L3.75778 16.6615H4.57378Z" fill="white"/>
<path d="M7.83486 17.5477H7.55178V15.5286C7.5276 15.597 7.51552 15.669 7.51609 15.7415L6.73578 17.5477H6.59424L5.81455 15.7748C5.79829 15.6908 5.77461 15.6084 5.74378 15.5286V17.5477H5.45947V15.2092H5.81393L6.52286 16.84C6.55855 16.9815 6.62932 17.0529 6.62932 17.1237C6.65268 17.025 6.68845 16.9297 6.73578 16.84L7.48039 15.2092H7.79793L7.83363 17.5477H7.83486Z" fill="white"/>
<path d="M8.22461 17.4425V17.1231C8.26497 17.1668 8.31292 17.2029 8.36615 17.2295C8.40184 17.2652 8.47261 17.2652 8.50769 17.3003C8.57845 17.3003 8.61415 17.336 8.68492 17.336H8.82646C8.96462 17.3438 9.10158 17.3065 9.21661 17.2295C9.25979 17.1957 9.29489 17.1527 9.31938 17.1037C9.34386 17.0546 9.3571 17.0007 9.35815 16.9458C9.35815 16.8751 9.35815 16.8394 9.32246 16.8043C9.28676 16.7692 9.25169 16.6978 9.21599 16.6628C9.16193 16.6195 9.10233 16.5837 9.03876 16.5563L8.82584 16.4498C8.74721 16.4153 8.67516 16.3675 8.61292 16.3083C8.54215 16.2375 8.47138 16.2018 8.43569 16.1668C8.38006 16.115 8.33236 16.0552 8.29415 15.9895C8.26514 15.9225 8.25289 15.8494 8.25846 15.7766C8.24351 15.6764 8.26896 15.5744 8.32922 15.4929C8.36925 15.4174 8.43098 15.3557 8.50646 15.3157C8.57801 15.2597 8.66278 15.223 8.75261 15.2092C8.85598 15.1778 8.96424 15.1657 9.07199 15.1735C9.24018 15.1716 9.40767 15.1954 9.56861 15.2443V15.528C9.41184 15.4235 9.22491 15.3737 9.03692 15.3865H8.85969C8.83232 15.387 8.80543 15.3937 8.78095 15.4059C8.75647 15.4181 8.73502 15.4357 8.71815 15.4572L8.61169 15.5637C8.58841 15.6073 8.57624 15.6561 8.57624 15.7055C8.57624 15.755 8.58841 15.8037 8.61169 15.8474C8.61169 15.8827 8.64717 15.9181 8.71815 15.9538C8.75384 15.9895 8.82461 16.0246 8.85969 16.0603L9.07261 16.1668C9.15786 16.2081 9.24011 16.2554 9.31876 16.3083C9.38447 16.3465 9.44419 16.3942 9.49599 16.4498C9.56134 16.4918 9.61108 16.5541 9.63753 16.6271C9.66895 16.7051 9.6812 16.7895 9.67322 16.8732C9.68817 16.9734 9.66272 17.0755 9.60246 17.1569C9.53169 17.2277 9.49599 17.2985 9.42522 17.3341C9.33554 17.3815 9.24021 17.4173 9.14153 17.4406C9.03507 17.4406 8.92861 17.4763 8.82215 17.4763H8.68061C8.6307 17.4815 8.58057 17.4688 8.53907 17.4406C8.4683 17.4406 8.43261 17.4049 8.39753 17.4049C8.29538 17.512 8.2603 17.4782 8.22461 17.4425Z" fill="white"/>
<path d="M11.7345 17.5477H11.4509V16.4855H10.2435V17.5477H9.99731V15.2092H10.281V16.2375H11.4865V15.2092H11.7702V17.5477H11.7345Z" fill="white"/>
<path d="M13.5075 17.5477H12.2668V15.2092H13.4361V15.4554H12.513V16.2351H13.3641V16.4812H12.513V17.3015H13.4705L13.5062 17.5477H13.5075Z" fill="white"/>
<path d="M13.8259 17.5477V15.2092H14.4641C15.2795 15.2092 15.7047 15.5994 15.7047 16.344C15.7131 16.669 15.5992 16.9853 15.3853 17.2302C15.2603 17.3418 15.1143 17.4276 14.9558 17.4824C14.7973 17.5372 14.6296 17.5601 14.4622 17.5495L13.8259 17.5477ZM14.1096 15.4554V17.3015H14.4641C14.5929 17.313 14.7228 17.297 14.845 17.2546C14.9672 17.2122 15.079 17.1443 15.173 17.0554C15.2646 16.9632 15.3342 16.8517 15.3768 16.729C15.4194 16.6062 15.4339 16.4755 15.4192 16.3465C15.4192 15.744 15.0998 15.4603 14.4616 15.4603L14.1096 15.4554Z" fill="white"/>
<path d="M16.3438 16.6628V17.5477H16.0601V15.2092H16.6982C16.9027 15.1965 17.1047 15.2596 17.2656 15.3865C17.335 15.4489 17.3899 15.5256 17.4267 15.6113C17.4635 15.6971 17.4811 15.7898 17.4785 15.8831C17.4812 15.9815 17.4637 16.0795 17.4271 16.171C17.3905 16.2624 17.3355 16.3454 17.2656 16.4148C17.1788 16.491 17.0776 16.5491 16.968 16.5857C16.8584 16.6223 16.7426 16.6365 16.6274 16.6277C16.6625 16.6628 16.3438 16.6628 16.3438 16.6628ZM16.3438 15.4572V16.4148H16.6274C16.7042 16.4214 16.7816 16.4123 16.8547 16.388C16.9278 16.3636 16.9952 16.3246 17.0527 16.2732C17.1032 16.23 17.1424 16.1752 17.1671 16.1134C17.1917 16.0517 17.201 15.9849 17.1942 15.9188C17.1942 15.5994 17.017 15.4578 16.6625 15.4578L16.3438 15.4572Z" fill="white"/>
<path d="M19.5344 16.6271C19.5344 17.2652 19.215 17.6197 18.6482 17.6197C18.0814 17.6197 17.7971 17.3003 17.7971 16.6597V15.2443H18.0808V16.6597C18.0808 17.1206 18.2937 17.3686 18.6833 17.3686C19.0728 17.3686 19.2857 17.1224 19.2857 16.6597V15.2443H19.5694L19.5337 16.6271H19.5344Z" fill="white"/>
<path d="M21.6969 17.5489H21.3775L20.9874 16.9108C20.9607 16.8575 20.9247 16.8096 20.8809 16.7692L20.7744 16.6628C20.7387 16.6271 20.7037 16.6271 20.668 16.592H20.2778V17.5828H19.9954V15.2443H20.7043C20.8002 15.2386 20.8964 15.2507 20.988 15.28L21.2009 15.3865C21.2662 15.4284 21.316 15.4907 21.3424 15.5637C21.374 15.6547 21.3861 15.7514 21.3781 15.8474C21.3837 15.9202 21.3714 15.9933 21.3424 16.0603C21.315 16.1239 21.2792 16.1835 21.236 16.2375L21.0944 16.3791C21.0297 16.4184 20.9569 16.4426 20.8815 16.4498C20.9172 16.4498 20.9523 16.4855 20.988 16.5206C21.0063 16.5219 21.0236 16.5298 21.0366 16.5428C21.0496 16.5558 21.0575 16.573 21.0587 16.5914C21.0944 16.6271 21.0944 16.6622 21.1295 16.6978C21.1646 16.7335 21.1652 16.7686 21.2003 16.8394L21.6969 17.5489ZM20.2815 15.4566V16.3077H20.636C20.6974 16.3169 20.7601 16.3042 20.8132 16.272C20.884 16.272 20.9197 16.2363 20.9547 16.1655C20.9985 16.1252 21.0346 16.0772 21.0612 16.024C21.0612 15.9532 21.0969 15.9175 21.0969 15.8468C21.1037 15.7908 21.0938 15.7341 21.0687 15.6837C21.0435 15.6333 21.0041 15.5913 20.9554 15.5631C20.9065 15.5223 20.85 15.4918 20.789 15.4736C20.7281 15.4553 20.6641 15.4495 20.6009 15.4566H20.2815Z" fill="white"/>
</svg>
