<svg width="106" height="30" viewBox="0 0 106 30" fill="none" xmlns="http://www.w3.org/2000/svg">
<path d="M25.8385 14.5724C29.7522 14.5724 32.925 11.3997 32.925 7.48591C32.925 3.57215 29.7522 0.399414 25.8385 0.399414C21.9247 0.399414 18.752 3.57215 18.752 7.48591C18.752 11.3997 21.9247 14.5724 25.8385 14.5724Z" fill="white"/>
<path d="M0.116573 4.44249C0.0386214 4.36525 0 4.26745 0 4.15088C0 4.03431 0.0772428 3.9762 0.233146 3.9762H2.24359C2.37965 3.9762 2.52492 4.05415 2.68082 4.20934L6.76052 9.39631C6.79914 9.43564 6.81898 9.48382 6.81898 9.54193C6.81898 9.6004 6.79914 9.64894 6.76052 9.68791L5.74077 10.9408C5.68266 10.9993 5.6242 11.0283 5.56574 11.0283C5.50763 11.0283 5.44916 10.9989 5.39105 10.9408L0.116573 4.44249ZM8.82978 12.3978V18.4879C8.82978 18.838 8.64269 19.0127 8.26888 19.0127H7.11732C6.763 19.0127 6.58584 18.838 6.58584 18.4879V12.6015C6.58584 12.4658 6.61525 12.3393 6.67406 12.2228C6.73324 12.1065 6.80198 11.9999 6.88099 11.9024L12.7929 4.20934C12.9095 4.05415 13.0452 3.9762 13.2011 3.9762H15.1534C15.309 3.9762 15.3866 4.03466 15.3866 4.15088C15.3866 4.19021 15.338 4.28729 15.2406 4.44249L8.82978 12.3978ZM37.9117 4.53001C37.9117 4.37481 37.9599 4.24336 38.0573 4.13671C38.1544 4.03005 38.2806 3.9762 38.4361 3.9762H47.1784C47.8193 3.9762 48.4171 4.09773 48.9705 4.34044C49.524 4.58351 50.0094 4.91374 50.4275 5.33113C50.8453 5.74924 51.1751 6.23466 51.4182 6.78847C51.6609 7.34193 51.7825 7.93932 51.7825 8.58065C51.7825 9.12454 51.6949 9.63973 51.5203 10.1248C51.3452 10.6109 51.1022 11.0478 50.7914 11.4362C50.4803 11.8252 50.1111 12.1604 49.6842 12.4417C49.2568 12.7234 48.8001 12.9218 48.3147 13.0391L52.4529 18.6927C52.4915 18.7508 52.511 18.8192 52.511 18.8965C52.511 18.9936 52.4528 19.0417 52.3363 19.0417H50.5005C50.3641 19.0417 50.2234 18.9985 50.0778 18.911C49.9322 18.8235 49.8106 18.7119 49.7139 18.5762L45.7508 13.1851H42.3411C42.1852 13.1851 42.0591 13.1362 41.9623 13.0391C41.8649 12.9427 41.8167 12.8162 41.8167 12.6607V11.7572C41.8167 11.602 41.8649 11.4758 41.9623 11.3784C42.0591 11.2817 42.1852 11.2328 42.3411 11.2328H46.8871C47.6252 11.2328 48.2612 10.9805 48.7959 10.4752C49.3302 9.97031 49.5973 9.34883 49.5973 8.61006C49.5973 7.872 49.3302 7.25051 48.7959 6.74489C48.2612 6.23998 47.6255 5.98734 46.8871 5.98734H40.1556V18.4886C40.1556 18.6438 40.1018 18.7703 39.9951 18.8674C39.8881 18.9645 39.757 19.013 39.6018 19.013H38.4361C38.2806 19.013 38.1544 18.9645 38.0573 18.8674C37.9602 18.7703 37.9117 18.6438 37.9117 18.4886V4.53001Z" fill="#BE1E2D"/>
<path d="M70.9861 18.5464C71.0251 18.663 71.0449 18.7313 71.0449 18.7505C71.0449 18.9255 70.9478 19.0127 70.753 19.0127H69.1216C68.9661 19.0127 68.8488 18.9354 68.7723 18.7795L67.1112 15.3118H60.1172C59.9808 15.3118 59.9142 15.2444 59.9142 15.108C59.9142 15.0499 59.923 15.0014 59.9425 14.962L60.5845 13.6804C60.6618 13.4866 60.8074 13.3895 61.0207 13.3895H66.1797L62.624 5.7255L56.2717 18.7806C56.1937 18.9358 56.0768 19.0137 55.9216 19.0137H54.4653C54.2705 19.0137 54.1748 18.9266 54.1748 18.7515C54.1748 18.7324 54.1936 18.664 54.2329 18.5475L61.1387 4.53107C61.2163 4.37587 61.3279 4.24442 61.4735 4.13777C61.6188 4.03112 61.7694 3.97726 61.9239 3.97726H63.2934C63.4489 3.97726 63.5995 4.03112 63.7451 4.13777C63.8907 4.24477 64.0027 4.37587 64.08 4.53107L70.9861 18.5464ZM73.9575 4.53001C73.9575 4.37481 74.0067 4.24336 74.1042 4.13671C74.2002 4.03005 74.327 3.9762 74.4815 3.9762H83.2532C83.8952 3.9762 84.4916 4.09773 85.0461 4.34044C85.5995 4.58351 86.0807 4.91374 86.4882 5.33113C86.8956 5.74924 87.2209 6.23466 87.4647 6.78847C87.7078 7.34193 87.8282 7.93932 87.8282 8.58065C87.8282 9.22162 87.7067 9.81902 87.4647 10.3728C87.2209 10.9266 86.8964 11.4075 86.4882 11.8153C86.0807 12.2231 85.5985 12.5487 85.0461 12.7918C84.4923 13.0349 83.8952 13.155 83.2532 13.155H78.3872C78.2317 13.155 78.1056 13.1064 78.0088 13.0094C77.9114 12.913 77.8632 12.7865 77.8632 12.6306V11.7274C77.8632 11.5722 77.9114 11.4461 78.0088 11.3483C78.1056 11.2516 78.2317 11.2027 78.3872 11.2027H82.9042C83.273 11.2027 83.6274 11.1346 83.9682 10.9986C84.3077 10.8629 84.6042 10.6779 84.8565 10.4448C85.1095 10.2116 85.3083 9.93488 85.4546 9.61421C85.5995 9.29355 85.6729 8.94915 85.6729 8.57994C85.6729 8.21109 85.5995 7.87094 85.4546 7.55984C85.3093 7.24945 85.1095 6.97697 84.8565 6.74383C84.6042 6.51068 84.3077 6.32643 83.9682 6.19002C83.6274 6.05467 83.273 5.98593 82.9042 5.98593H76.2018V18.4869C76.2018 18.6424 76.1483 18.7696 76.0416 18.866C75.9346 18.9631 75.8031 19.0116 75.6483 19.0116H74.4826C74.3274 19.0116 74.2012 18.9631 74.1045 18.866C74.0078 18.7696 73.9589 18.6424 73.9589 18.4869V4.53001H73.9575ZM91.5008 4.53001C91.5008 4.37481 91.549 4.24336 91.6461 4.13671C91.7428 4.03005 91.8693 3.9762 92.0245 3.9762H100.796C101.437 3.9762 102.035 4.09773 102.589 4.34044C103.143 4.58351 103.623 4.91374 104.031 5.33113C104.438 5.74924 104.764 6.23466 105.007 6.78847C105.25 7.34193 105.371 7.93932 105.371 8.58065C105.371 9.22162 105.249 9.81902 105.007 10.3728C104.764 10.9266 104.439 11.4075 104.031 11.8153C103.623 12.2231 103.142 12.5487 102.589 12.7918C102.035 13.0345 101.437 13.155 100.796 13.155H95.9302C95.7743 13.155 95.6482 13.1064 95.5514 13.0094C95.4551 12.913 95.4055 12.7865 95.4055 12.6306V11.7274C95.4055 11.5722 95.4551 11.4461 95.5514 11.3483C95.6482 11.2516 95.7743 11.2027 95.9302 11.2027H100.447C100.816 11.2027 101.17 11.1346 101.511 10.9986C101.85 10.8629 102.146 10.6779 102.399 10.4448C102.651 10.2116 102.85 9.93488 102.997 9.61421C103.143 9.29355 103.216 8.94915 103.216 8.57994C103.216 8.21109 103.143 7.87094 102.997 7.55984C102.852 7.24945 102.651 6.97697 102.399 6.74383C102.146 6.51068 101.85 6.32643 101.511 6.19002C101.17 6.05467 100.816 5.98593 100.447 5.98593H93.7444V18.4869C93.7444 18.6424 93.6909 18.7696 93.5846 18.866C93.4772 18.9631 93.3458 19.0116 93.1909 19.0116H92.0249C91.8697 19.0116 91.7439 18.9631 91.6471 18.866C91.5501 18.7696 91.5019 18.6424 91.5019 18.4869L91.5008 4.53001Z" fill="#1B7EBC"/>
<path d="M25.8385 0C21.4821 0 17.9495 3.53191 17.9495 7.88869C17.9495 13.8059 25.8385 23.6668 25.8385 23.6668C25.8385 23.6668 33.7279 13.8049 33.7279 7.88869C33.7276 3.53191 30.1956 0 25.8385 0ZM25.8385 12.3075C23.3983 12.3075 21.4208 10.3289 21.4208 7.88834C21.4208 5.4481 23.3986 3.47132 25.8385 3.47132C28.2784 3.47132 30.2566 5.44881 30.2566 7.88834C30.2566 10.3289 28.2784 12.3075 25.8385 12.3075Z" fill="#BE1E2D"/>
<path d="M27.2821 8.33414L28.1743 11.0794L25.8393 9.38223L23.5029 11.0794L24.3954 8.33414L22.0601 6.63657H24.9471L25.8396 3.89197L26.7318 6.63657H29.6178L27.2821 8.33414Z" fill="#1B7EBC"/>
<path d="M61.903 25.7836V25.953C61.903 25.9994 61.8665 26.0756 61.7939 26.1812C61.7209 26.2871 61.6649 26.3399 61.6245 26.3399C61.4066 26.3399 61.2971 26.2871 61.2971 26.1812C61.2971 26.1291 61.3637 26.049 61.4959 25.943C61.6808 25.7978 61.7953 25.7251 61.8385 25.7251C61.8814 25.7241 61.903 25.7439 61.903 25.7836Z" fill="#BE1E2E"/>
<path d="M63.6987 25.7836V25.953C63.6987 25.9994 63.6618 26.0756 63.5892 26.1812C63.5165 26.2871 63.4606 26.3399 63.4202 26.3399C63.2023 26.3399 63.0928 26.2871 63.0928 26.1812C63.0928 26.1291 63.159 26.049 63.2916 25.943C63.4765 25.7978 63.5906 25.7251 63.6342 25.7251C63.6774 25.7241 63.6987 25.7439 63.6987 25.7836Z" fill="#BE1E2E"/>
<path d="M65.4948 25.7836V25.953C65.4948 25.9994 65.458 26.0756 65.3853 26.1812C65.3123 26.2871 65.2563 26.3399 65.2163 26.3399C64.9984 26.3399 64.8889 26.2871 64.8889 26.1812C64.8889 26.1291 64.9552 26.049 65.0877 25.943C65.2723 25.7978 65.3867 25.7251 65.43 25.7251C65.4728 25.7241 65.4948 25.7439 65.4948 25.7836Z" fill="#BE1E2E"/>
<path d="M67.7368 23.4421C68.2463 23.3957 68.556 23.3727 68.6644 23.3727C68.7739 23.3727 68.8281 23.3893 68.8281 23.4223C68.8281 23.462 68.7501 23.5034 68.5953 23.547C68.4401 23.5899 68.061 23.6445 67.4597 23.7107C67.426 23.7702 67.3863 23.8397 67.3406 23.9191C67.2414 24.0778 67.1879 24.1742 67.1819 24.2071C66.8049 24.9611 66.6065 25.4402 66.5863 25.6457C66.5792 25.7052 66.5767 25.7814 66.5767 25.8739C66.5767 25.9671 66.6029 26.0432 66.6561 26.1028C66.7493 26.2087 66.8814 26.2151 67.0529 26.1226C67.2244 26.0301 67.4647 25.8452 67.7722 25.5677C68.0798 25.2899 68.3288 25.0182 68.5205 24.7538C68.5471 24.7205 68.5808 24.7145 68.6197 24.7337C68.719 24.7801 68.5471 25.0412 68.1038 25.5178C67.6811 25.9738 67.3268 26.2548 67.0423 26.3607C66.8768 26.4202 66.7386 26.45 66.6256 26.45C66.3609 26.45 66.1859 26.3246 66.1005 26.0734C66.0867 26.0269 66.0799 25.971 66.0799 25.9043C66.0799 25.6733 66.1859 25.3222 66.3974 24.8523C66.3641 24.9253 66.2355 25.0905 66.0105 25.3484C65.951 25.415 65.9042 25.415 65.8712 25.3484C65.8642 25.3353 65.8613 25.3169 65.8613 25.2938C65.8613 25.2712 65.8744 25.2425 65.901 25.2095C66.2249 24.8063 66.4796 24.4654 66.6649 24.1876C66.6649 24.1809 66.7376 24.0427 66.8828 23.7709C66.8162 23.7844 66.7493 23.7908 66.6798 23.7908C66.6104 23.7908 66.559 23.7695 66.5253 23.7263C66.4924 23.6834 66.4888 23.6321 66.5161 23.5725C66.5622 23.4666 66.7376 23.4071 67.0412 23.3932C67.0483 23.3801 67.0614 23.3734 67.0809 23.3734L67.5766 22.4507C67.6028 22.3983 67.6326 22.3434 67.6659 22.2874C67.6992 22.2311 67.724 22.1882 67.7407 22.1584C67.757 22.1287 67.7754 22.0971 67.7945 22.0638C67.8147 22.0305 67.8314 22.0078 67.8445 21.9947C67.8576 21.9816 67.8707 21.9685 67.8838 21.955C67.9104 21.9153 67.9883 21.8955 68.117 21.8955C68.2459 21.8955 68.3335 21.932 68.3799 22.0046C68.3997 22.0312 68.4096 22.0759 68.4096 22.1389C68.4096 22.202 68.387 22.2711 68.3402 22.3473C68.2938 22.4238 68.2442 22.478 68.1914 22.5113C68.1386 22.5446 68.1021 22.5804 68.0822 22.6205L67.606 23.4542L67.7368 23.4421Z" fill="#BE1E2E"/>
<path d="M69.7018 26.4682C69.3641 26.4682 69.1951 26.2648 69.1951 25.8573C69.1951 25.4513 69.486 24.9496 70.0682 24.355C70.115 24.3086 70.1483 24.2724 70.1674 24.2452L70.2365 24.1467C70.3293 24.0212 70.3722 23.9411 70.3658 23.9078L70.3361 23.8185C70.3091 23.7392 70.2 23.6814 70.0079 23.6456C69.8163 23.6088 69.6611 23.5911 69.5424 23.5911C68.9467 24.4312 68.6031 24.9106 68.5106 25.03C68.4177 25.149 68.3554 25.199 68.3221 25.1788C68.2888 25.1586 68.2725 25.1359 68.2725 25.1097C68.2725 25.0835 68.2923 25.0431 68.332 24.9907C68.6891 24.5541 68.9963 24.0875 69.2547 23.5918C69.1753 23.5787 69.1158 23.5507 69.0761 23.5074C69.0367 23.4649 69.0332 23.3923 69.0665 23.2892C69.0998 23.1868 69.2008 23.0497 69.3691 22.8782C69.5378 22.7063 69.6852 22.5901 69.8106 22.5309C69.936 22.4718 70.015 22.4349 70.0487 22.4214C70.082 22.4087 70.1181 22.4012 70.1578 22.4012C70.2379 22.4012 70.2106 22.5203 70.0785 22.7584L69.6915 23.3735C69.9892 23.3937 70.2439 23.4033 70.4551 23.4033L70.802 23.3937C70.9143 23.3937 70.9972 23.4082 71.05 23.4387C71.1025 23.4685 71.1163 23.5198 71.0893 23.5925C71.0429 23.7179 70.9274 23.8869 70.7425 24.0985C70.3456 24.5616 70.048 25.0544 69.8492 25.5767C69.8028 25.7025 69.7801 25.8116 69.7801 25.9041C69.7801 26.0965 69.8492 26.1922 69.9885 26.1922C70.0349 26.1922 70.1224 26.1557 70.2514 26.083C70.38 26.01 70.5968 25.8368 70.9012 25.5618C71.2049 25.2876 71.4501 25.0179 71.6354 24.7536C71.6612 24.7203 71.6928 24.7122 71.7296 24.7288C71.7661 24.7455 71.7842 24.7621 71.7842 24.7784C71.7842 24.7954 71.7767 24.8138 71.7636 24.833C71.6651 25.0116 71.4865 25.2394 71.2279 25.5179C70.9699 25.7953 70.7184 26.0203 70.4739 26.1922C70.2365 26.3754 69.9789 26.4682 69.7018 26.4682Z" fill="#BE1E2E"/>
<path d="M75.6435 25.5156C75.3852 25.7934 75.1542 26.0085 74.949 26.1605C74.6847 26.3522 74.3963 26.4485 74.0855 26.4485C74.026 26.4485 73.948 26.4202 73.8524 26.3646C73.7564 26.3082 73.6919 26.2271 73.6593 26.1208C73.6256 26.0152 73.6093 25.9125 73.6093 25.8132C73.6093 25.4695 73.6759 25.1287 73.8081 24.7914C73.7879 24.8048 73.6972 24.9455 73.5349 25.213C73.3726 25.4809 73.1738 25.7339 72.9393 25.972C72.7047 26.2104 72.468 26.3295 72.2299 26.3295C72.1176 26.3295 71.9879 26.2997 71.843 26.2402C71.578 26.1208 71.4458 25.9025 71.4458 25.5851C71.4458 25.1942 71.5801 24.7931 71.848 24.38C72.1162 23.9669 72.2859 23.7468 72.3585 23.7206C72.4578 23.694 72.5524 23.6809 72.6416 23.6809C72.7309 23.6809 72.822 23.6993 72.9148 23.7355C73.0073 23.772 72.9942 23.8326 72.8751 23.919C72.4191 24.3361 72.0946 24.7985 71.9029 25.308C71.8302 25.5071 71.7937 25.6736 71.7937 25.809C71.7937 25.945 71.8288 26.0322 71.8979 26.0719C71.967 26.1116 72.035 26.1314 72.1013 26.1314C72.2597 26.1314 72.4765 26.0205 72.7511 25.7991C73.025 25.5776 73.4042 25.1163 73.8867 24.4158C73.9534 24.3166 74.0689 24.1231 74.234 23.835C74.3991 23.547 74.498 23.3769 74.5316 23.3245C74.6376 23.3245 74.7609 23.3486 74.9037 23.3989C75.0457 23.4485 75.0936 23.5126 75.0472 23.5923C74.7297 24.1213 74.5068 24.5118 74.3775 24.763C74.2485 25.0146 74.1606 25.3087 74.1149 25.646C74.1078 25.7055 74.1047 25.7817 74.1047 25.8742C74.1047 25.9674 74.1309 26.0436 74.1847 26.1031C74.2836 26.209 74.4211 26.214 74.5965 26.118C74.7715 26.0219 75.0114 25.837 75.315 25.5624C75.619 25.2885 75.8646 25.0185 76.0492 24.7542C76.0754 24.7209 76.1069 24.7131 76.1438 24.7297C76.1803 24.7464 76.198 24.763 76.198 24.7793C76.198 24.796 76.1913 24.8148 76.1782 24.8339C76.0804 25.0096 75.9018 25.2382 75.6435 25.5156Z" fill="#BE1E2E"/>
<path d="M76.4176 24.9503C76.3379 25.1753 76.295 25.3262 76.2887 25.4013C76.2823 25.4775 76.2791 25.5799 76.2791 25.7085C76.2791 25.8375 76.3124 25.9551 76.378 26.0607C76.4903 26.2393 76.6795 26.2524 76.9438 26.1004C77.1429 25.9945 77.3942 25.801 77.6978 25.52C78.0015 25.2383 78.2367 24.9822 78.4022 24.7511C78.4153 24.7306 78.4355 24.7214 78.4617 24.7214C78.5213 24.7214 78.5379 24.7642 78.5117 24.8496C78.4128 25.0282 78.2286 25.2564 77.9607 25.5345C77.6929 25.812 77.4501 26.032 77.2312 26.1939C77.0122 26.3559 76.795 26.4377 76.5764 26.4377C76.0736 26.4377 75.822 26.1932 75.822 25.7036C75.822 25.6837 75.822 25.6642 75.822 25.644C75.8486 25.1809 76.0828 24.4819 76.5264 23.5457C76.9697 22.6092 77.3697 21.9034 77.7272 21.4272L78.0344 21.0399C78.1071 20.9545 78.213 20.8482 78.3519 20.7225C78.6159 20.4712 78.8894 20.3455 79.1704 20.3455C79.4517 20.3455 79.6416 20.4316 79.7409 20.6038C79.7735 20.6633 79.7905 20.749 79.7905 20.8621C79.7905 20.9751 79.7409 21.1335 79.6416 21.3383C78.9603 22.5224 77.8856 23.7268 76.4176 24.9503ZM79.3734 21.1604C79.4531 21.0155 79.4925 20.9025 79.4925 20.8231C79.4925 20.6842 79.4368 20.6147 79.3238 20.6147C79.231 20.6147 79.1155 20.6679 78.9769 20.7735C78.4479 21.1834 77.9356 21.8319 77.4392 22.718C77.042 23.4323 76.7514 24.0435 76.5657 24.5534C77.0221 24.2427 77.5327 23.7367 78.0986 23.0355C78.6648 22.3343 79.0896 21.7096 79.3734 21.1604Z" fill="#BE1E2E"/>
<path d="M78.0043 30C77.9515 30 77.8853 29.9904 77.8059 29.9702C77.4682 29.8841 77.2996 29.7073 77.2996 29.4395C77.2996 29.1716 77.4728 28.836 77.8204 28.4325C78.1673 28.0289 78.9 27.4567 80.0179 26.7161C80.6394 25.4462 81.0331 24.5562 81.1986 24.0473C81.1188 24.1402 80.9636 24.3397 80.7326 24.6469C80.5012 24.9544 80.2964 25.2159 80.1179 25.431C79.9389 25.6457 79.7242 25.8498 79.473 26.0415C79.2214 26.2332 78.9904 26.3295 78.7785 26.3295C78.5666 26.3295 78.4029 26.2814 78.2874 26.1857C78.1716 26.0897 78.1071 25.989 78.0936 25.8831C78.0805 25.7775 78.0738 25.6882 78.0738 25.6152C78.0738 25.3711 78.14 25.1259 78.2725 24.8811C78.4713 24.4778 78.7381 24.131 79.0761 23.8401C79.2016 23.721 79.3128 23.6611 79.4085 23.6611C79.5042 23.6611 79.5924 23.6912 79.6714 23.7508C79.7568 23.8436 79.7834 23.9226 79.7511 23.9889C79.4996 24.1342 79.2122 24.4155 78.8876 24.8322C78.7158 25.0572 78.5967 25.3417 78.5305 25.6854C78.5234 25.7318 78.5206 25.7896 78.5206 25.8583C78.5206 25.9277 78.5486 25.9841 78.6045 26.0277C78.6605 26.0705 78.7186 26.0922 78.7782 26.0922C78.983 26.0922 79.1984 25.983 79.423 25.7648C79.6477 25.5465 79.8624 25.3165 80.0672 25.0752C80.272 24.8339 80.5051 24.5445 80.7673 24.2075C81.0278 23.8705 81.2003 23.6491 81.2832 23.5431C81.3654 23.4372 81.4501 23.3844 81.5362 23.3844C81.6418 23.3844 81.7509 23.4142 81.8636 23.4737C81.9763 23.5332 82.0238 23.5796 82.0075 23.6126C81.9908 23.6459 81.8225 24.0211 81.5011 24.7393C81.1801 25.4568 80.9473 25.9713 80.8014 26.2821C80.9601 26.1963 81.2294 25.9929 81.6099 25.6719C81.9901 25.3513 82.3118 25.0256 82.5769 24.6943C82.6431 24.6146 82.6864 24.6086 82.7055 24.6741C82.7126 24.6876 82.7154 24.7096 82.7154 24.7393C82.7154 24.7691 82.6949 24.8098 82.6559 24.8634C82.4507 25.1348 82.1233 25.4753 81.6737 25.8852C81.2241 26.2952 80.8673 26.573 80.6026 26.7193C80.0406 27.8765 79.6636 28.604 79.4719 28.9016C78.9762 29.6329 78.4873 30 78.0043 30ZM79.8305 27.0931C79.0368 27.6887 78.4692 28.1579 78.1287 28.5026C77.7882 28.8463 77.6181 29.1425 77.6181 29.3906C77.6181 29.6382 77.7038 29.7626 77.8764 29.7626C78.0086 29.7626 78.1609 29.6953 78.3328 29.5592C78.5039 29.4235 78.6697 29.2432 78.8285 29.0192C78.9869 28.7935 79.1073 28.6001 79.1902 28.4381C79.2724 28.2762 79.3869 28.0377 79.5325 27.7238C79.6778 27.4088 79.777 27.1991 79.8305 27.0931Z" fill="#BE1E2E"/>
<path d="M84.3046 30C84.2518 30 84.1856 29.9904 84.1058 29.9702C83.7685 29.8841 83.5999 29.7073 83.5999 29.4395C83.5999 29.1716 83.7728 28.836 84.1207 28.4325C84.4676 28.0289 85.2003 27.4567 86.3182 26.7161C86.9397 25.4462 87.3334 24.5562 87.4988 24.0473C87.4191 24.1402 87.2639 24.3397 87.0325 24.6469C86.8015 24.9544 86.5967 25.2159 86.4182 25.431C86.2389 25.6457 86.0245 25.8498 85.7733 26.0415C85.5217 26.2332 85.2903 26.3295 85.0788 26.3295C84.8666 26.3295 84.7032 26.2814 84.5877 26.1857C84.4718 26.0897 84.407 25.989 84.3939 25.8831C84.3808 25.7775 84.3737 25.6882 84.3737 25.6152C84.3737 25.3711 84.4403 25.1259 84.5725 24.8811C84.7713 24.4778 85.0384 24.131 85.3764 23.8401C85.5019 23.721 85.6128 23.6611 85.7088 23.6611C85.8048 23.6611 85.8927 23.6912 85.9717 23.7508C86.0571 23.8436 86.0837 23.9226 86.0514 23.9889C85.7999 24.1342 85.5125 24.4155 85.1876 24.8322C85.0161 25.0572 84.897 25.3417 84.8304 25.6854C84.8237 25.7318 84.8209 25.7896 84.8209 25.8583C84.8209 25.9277 84.8485 25.9841 84.9048 26.0277C84.9608 26.0705 85.0189 26.0922 85.0784 26.0922C85.2832 26.0922 85.4983 25.983 85.723 25.7648C85.9476 25.5465 86.1623 25.3165 86.3675 25.0752C86.5723 24.8339 86.8054 24.5445 87.0676 24.2075C87.3284 23.8705 87.5006 23.6491 87.5832 23.5431C87.6654 23.4372 87.7504 23.3844 87.8365 23.3844C87.9421 23.3844 88.0509 23.4142 88.1639 23.4737C88.2769 23.5332 88.3241 23.5796 88.3078 23.6126C88.2911 23.6459 88.1225 24.0211 87.8011 24.7393C87.4801 25.4568 87.2473 25.9713 87.1016 26.2821C87.2604 26.1963 87.5297 25.9929 87.9102 25.6719C88.2901 25.3513 88.6125 25.0256 88.8772 24.6943C88.9438 24.6146 88.987 24.6086 89.0061 24.6741C89.0129 24.6876 89.0161 24.7096 89.0161 24.7393C89.0161 24.7691 88.9959 24.8098 88.9565 24.8634C88.7514 25.1348 88.4236 25.4753 87.9743 25.8852C87.5251 26.2952 87.1679 26.573 86.9029 26.7193C86.3409 27.8765 85.9643 28.604 85.7726 28.9016C85.2769 29.6329 84.7868 30 84.3046 30ZM86.1297 27.0931C85.3364 27.6887 84.7688 28.1579 84.4283 28.5026C84.0878 28.8463 83.9173 29.1425 83.9173 29.3906C83.9173 29.6382 84.0034 29.7626 84.1756 29.7626C84.3078 29.7626 84.4598 29.6953 84.632 29.5592C84.8031 29.4235 84.9686 29.2432 85.1273 29.0192C85.2861 28.7935 85.4066 28.6001 85.4895 28.4381C85.5717 28.2762 85.6861 28.0377 85.8317 27.7238C85.9774 27.4088 86.0766 27.1991 86.1297 27.0931Z" fill="#BE1E2E"/>
<path d="M90.743 25.1287C90.862 24.8846 90.9216 24.6954 90.9216 24.5632C90.9216 24.431 90.9067 24.3269 90.8769 24.2503C90.8468 24.1742 90.8599 24.11 90.9166 24.0572C90.9722 24.0044 91.0434 23.9839 91.1299 23.997C91.262 24.0307 91.3287 24.1795 91.3287 24.4442C91.3287 24.7085 91.1735 25.0561 90.8627 25.4852C90.8695 25.6641 90.9619 25.7534 91.1405 25.7534C91.3191 25.7534 91.5905 25.5617 91.9537 25.1776C92.1255 24.9792 92.2333 24.8502 92.2761 24.7907C92.319 24.7312 92.3573 24.7095 92.3902 24.7262C92.4235 24.7429 92.4402 24.7577 92.4402 24.7708C92.4402 24.8371 92.3211 25.009 92.083 25.2867C91.706 25.7498 91.3715 25.9812 91.081 25.9812C90.8886 25.9812 90.7532 25.8987 90.6742 25.7332C90.5421 25.8724 90.4131 26.0011 90.2873 26.1201C90.029 26.3384 89.7416 26.4475 89.4238 26.4475C89.2452 26.4475 89.0961 26.4046 88.977 26.3192C88.7456 26.1796 88.6301 25.932 88.6301 25.5745C88.6301 25.1843 88.7623 24.7875 89.0266 24.3846C89.179 24.1465 89.3576 23.9375 89.5624 23.7589C89.8862 23.4747 90.1941 23.3326 90.485 23.3326C90.5577 23.3326 90.6267 23.3422 90.6934 23.3624C90.8921 23.429 90.9913 23.5541 90.9913 23.7391C90.9913 23.8914 90.9517 23.9672 90.8723 23.9672C90.8386 23.9541 90.822 23.9045 90.822 23.8184C90.822 23.6994 90.7557 23.6398 90.6236 23.6398C90.3922 23.6398 90.0942 23.8517 89.7303 24.2748C89.3671 24.6982 89.1482 25.1248 89.0755 25.5546C89.0624 25.6276 89.0553 25.7084 89.0553 25.7977C89.0553 25.887 89.0851 25.9901 89.1446 26.1052C89.2041 26.2207 89.3147 26.2789 89.477 26.2789C89.6392 26.2789 89.8161 26.2062 90.0077 26.0606C90.1994 25.9153 90.3713 25.73 90.5236 25.5057L90.4939 25.4462C90.4677 25.3402 90.4808 25.2538 90.5332 25.1879C90.5871 25.1216 90.6569 25.1025 90.743 25.1287Z" fill="#BE1E2E"/>
<path d="M96.2984 25.5156C96.0405 25.7934 95.8091 26.0085 95.6039 26.1605C95.3396 26.3522 95.0515 26.4485 94.7408 26.4485C94.6813 26.4485 94.603 26.4202 94.5077 26.3646C94.4116 26.3082 94.3471 26.2271 94.3138 26.1208C94.2805 26.0152 94.2642 25.9125 94.2642 25.8132C94.2642 25.4695 94.3305 25.1287 94.4627 24.7914C94.4428 24.8048 94.3518 24.9455 94.1898 25.213C94.0275 25.4809 93.8291 25.7339 93.5942 25.972C93.3596 26.2104 93.1229 26.3295 92.8848 26.3295C92.7725 26.3295 92.6428 26.2997 92.4976 26.2402C92.2332 26.1208 92.1011 25.9025 92.1011 25.5851C92.1011 25.1942 92.235 24.7931 92.5029 24.38C92.7711 23.9669 92.9405 23.7468 93.0138 23.7206C93.1127 23.694 93.2069 23.6809 93.2962 23.6809C93.3855 23.6809 93.4769 23.6993 93.5694 23.7355C93.6619 23.7716 93.6491 23.8326 93.5301 23.919C93.0733 24.3361 92.7495 24.7985 92.5578 25.308C92.4852 25.5071 92.4483 25.6736 92.4483 25.809C92.4483 25.945 92.483 26.0322 92.5525 26.0719C92.6216 26.1116 92.69 26.1314 92.7559 26.1314C92.9143 26.1314 93.1315 26.0205 93.4057 25.7991C93.6799 25.5776 94.0587 25.1163 94.5413 24.4158C94.6076 24.3166 94.7234 24.1231 94.8882 23.835C95.054 23.547 95.1525 23.3769 95.1858 23.3245C95.2921 23.3245 95.4154 23.3486 95.5582 23.3989C95.7 23.4485 95.7485 23.5126 95.7021 23.5923C95.3846 24.1213 95.1614 24.5118 95.0321 24.763C94.9034 25.0146 94.8156 25.3087 94.7691 25.646C94.7624 25.7055 94.7596 25.7817 94.7596 25.8742C94.7596 25.9674 94.7858 26.0436 94.8393 26.1031C94.9382 26.209 95.0756 26.214 95.251 26.118C95.4261 26.0219 95.6659 25.837 95.97 25.5624C96.2736 25.2885 96.5192 25.0185 96.7041 24.7542C96.73 24.7209 96.7615 24.7131 96.7984 24.7297C96.8349 24.7464 96.8529 24.763 96.8529 24.7793C96.8529 24.796 96.8458 24.8148 96.8327 24.8339C96.7353 25.0096 96.5571 25.2382 96.2984 25.5156Z" fill="#BE1E2E"/>
<path d="M97.8961 26.4682C97.5588 26.4682 97.3898 26.2648 97.3898 25.8573C97.3898 25.4513 97.6807 24.9496 98.2629 24.355C98.3093 24.3086 98.3426 24.2724 98.3621 24.2452L98.4315 24.1467C98.5237 24.0212 98.5665 23.9411 98.5601 23.9078L98.5304 23.8185C98.5038 23.7392 98.3947 23.6814 98.2026 23.6456C98.0109 23.6088 97.8557 23.5911 97.7367 23.5911C97.1414 24.4312 96.7977 24.9106 96.7049 25.03C96.6121 25.149 96.5497 25.199 96.5168 25.1788C96.4838 25.1586 96.4668 25.1359 96.4668 25.1097C96.4668 25.0835 96.487 25.0431 96.5263 24.9907C96.8835 24.5541 97.1914 24.0875 97.449 23.5918C97.3696 23.5787 97.3101 23.5507 97.2704 23.5074C97.2311 23.4649 97.2275 23.3923 97.2608 23.2892C97.2938 23.1868 97.3948 23.0497 97.5634 22.8782C97.7321 22.7063 97.8795 22.5901 98.0049 22.5309C98.1304 22.4718 98.2097 22.4349 98.243 22.4214C98.2763 22.4087 98.3121 22.4012 98.3522 22.4012C98.4322 22.4012 98.4049 22.5203 98.2728 22.7584L97.8859 23.3735C98.1835 23.3937 98.4383 23.4033 98.6494 23.4033L98.9963 23.3937C99.1083 23.3937 99.1916 23.4082 99.244 23.4387C99.2968 23.4685 99.3106 23.5198 99.2837 23.5925C99.2373 23.7179 99.1214 23.8869 98.9368 24.0985C98.54 24.5616 98.242 25.0544 98.0435 25.5767C97.9971 25.7025 97.9741 25.8116 97.9741 25.9041C97.9741 26.0965 98.0435 26.1922 98.1824 26.1922C98.2292 26.1922 98.3167 26.1557 98.4453 26.083C98.5743 26.01 98.7912 25.8368 99.0952 25.5618C99.3992 25.2876 99.644 25.0179 99.8293 24.7536C99.8556 24.7203 99.8871 24.7122 99.9236 24.7288C99.9604 24.7455 99.9782 24.7621 99.9782 24.7784C99.9782 24.7954 99.9711 24.8138 99.958 24.833C99.8591 25.0116 99.6805 25.2394 99.4222 25.5179C99.1639 25.7953 98.9127 26.0203 98.6679 26.1922C98.4319 26.3754 98.1736 26.4682 97.8961 26.4682Z" fill="#BE1E2E"/>
<path d="M99.8108 26.3193C99.7247 26.4178 99.7066 26.4979 99.7562 26.5574C99.8062 26.6169 99.8618 26.6467 99.9252 26.6467C99.9883 26.6467 100.052 26.6368 100.118 26.6169C100.403 26.5308 100.679 26.3604 100.947 26.106C101.215 25.8516 101.349 25.5919 101.349 25.3276C101.349 25.1823 101.187 25.0239 100.863 24.851C100.711 24.7716 100.625 24.7256 100.605 24.7121C100.426 24.593 100.314 24.474 100.268 24.3549C100.175 24.5133 100.026 24.7419 99.8207 25.0395C99.7743 25.0919 99.7314 25.104 99.6925 25.0742C99.6528 25.0445 99.6492 25.0037 99.6825 24.9502C99.9539 24.5799 100.133 24.2688 100.218 24.0176C100.265 23.6541 100.529 23.3267 101.012 23.0354C101.495 22.7449 101.935 22.5996 102.332 22.5996C102.583 22.5996 102.76 22.6443 102.863 22.7335C102.965 22.8228 103.017 22.9104 103.017 22.9961C103.017 23.0818 102.992 23.1811 102.942 23.2941C102.892 23.4064 102.791 23.5124 102.64 23.6116C102.6 23.6381 102.567 23.6318 102.54 23.5917C102.527 23.552 102.555 23.4971 102.624 23.428C102.694 23.3586 102.739 23.2643 102.759 23.1453C102.779 23.0259 102.725 22.9536 102.6 22.927C102.58 22.927 102.561 22.927 102.54 22.927C102.282 22.927 101.96 23.023 101.573 23.2151C101.186 23.4068 100.884 23.6548 100.665 23.9595C100.579 24.0718 100.536 24.1863 100.536 24.3018C100.536 24.4177 100.616 24.5218 100.775 24.6143C100.841 24.654 100.953 24.7171 101.112 24.8028C101.27 24.8889 101.383 24.9516 101.449 24.9913C101.515 25.0303 101.594 25.0933 101.687 25.1791C101.78 25.2652 101.829 25.3446 101.836 25.4179C101.869 25.6163 101.777 25.8346 101.558 26.0727C101.247 26.4168 100.784 26.658 100.169 26.7969C100.03 26.8299 99.8898 26.8465 99.7477 26.8465C99.606 26.8465 99.5078 26.7941 99.4551 26.6882C99.4352 26.6619 99.4253 26.6205 99.4253 26.5638C99.4253 26.5071 99.4781 26.4168 99.5844 26.291C99.6832 26.1918 99.8427 26.0954 100.061 26.0029C100.081 25.9962 100.097 25.9997 100.111 26.0128C100.124 26.0259 100.127 26.0426 100.12 26.0624C100.113 26.0826 100.079 26.1057 100.016 26.1319C99.9511 26.1574 99.8834 26.2201 99.8108 26.3193Z" fill="#BE1E2E"/>
</svg>
