<svg width="16" height="15" viewBox="0 0 16 15" fill="none" xmlns="http://www.w3.org/2000/svg">
<path opacity="0.5" d="M8.00249 14.6758L6.84239 13.6232C2.72294 9.88718 0.000420996 7.42335 0.000420996 4.40011C-0.00479603 3.82086 0.105458 3.24634 0.324726 2.71017C0.543994 2.17399 0.867883 1.68682 1.27749 1.2772C1.68711 0.867593 2.17423 0.543704 2.71041 0.324436C3.24659 0.105168 3.8211 -0.0050401 4.40036 0.000176924C5.08505 0.00540989 5.76066 0.157412 6.38166 0.445861C7.00265 0.734309 7.55457 1.1525 8.00024 1.67232C8.44592 1.1525 8.99788 0.734309 9.61888 0.445861C10.2399 0.157412 10.9155 0.00540989 11.6002 0.000176924C12.1794 -0.0050401 12.7539 0.105168 13.2901 0.324436C13.8263 0.543704 14.3134 0.867593 14.723 1.2772C15.1326 1.68682 15.4565 2.17399 15.6758 2.71017C15.895 3.24634 16.0053 3.82086 16.0001 4.40011C16.0001 7.4241 13.2806 9.88867 9.15814 13.6314L8.00249 14.6758Z" fill="black"/>
</svg>
