<svg width="10" height="16" viewBox="0 0 10 16" fill="none" xmlns="http://www.w3.org/2000/svg">
<path d="M4.7879 0.579407C3.45587 0.670112 2.21371 1.28371 1.33219 2.28643C0.450681 3.28915 0.00130633 4.59968 0.0820136 5.93235C0.0820136 9.94646 4.05848 15.8582 4.7879 15.8735C5.51731 15.8888 9.49378 9.94764 9.49378 5.93235C9.57448 4.59968 9.12511 3.28915 8.2436 2.28643C7.36209 1.28371 6.11992 0.670112 4.7879 0.579407ZM4.7879 7.84411C4.31223 7.81146 3.86873 7.59226 3.55387 7.23422C3.23902 6.87618 3.07832 6.40828 3.10674 5.93235C3.07832 5.45641 3.23902 4.98851 3.55387 4.63047C3.86873 4.27244 4.31223 4.05324 4.7879 4.02058C5.26356 4.05324 5.70707 4.27244 6.02192 4.63047C6.33677 4.98851 6.49747 5.45641 6.46906 5.93235C6.49747 6.40828 6.33677 6.87618 6.02192 7.23422C5.70707 7.59226 5.26356 7.81146 4.7879 7.84411Z" fill="#0E6BA8"/>
</svg>
