<svg width="18" height="18" viewBox="0 0 18 18" fill="none" xmlns="http://www.w3.org/2000/svg">
<path opacity="0.5" fill-rule="evenodd" clip-rule="evenodd" d="M12.5 11H11.706L11.43 10.726C12.4431 9.55111 13.0003 8.05135 13 6.5C13 4.77609 12.3152 3.1228 11.0962 1.90381C9.8772 0.684822 8.22391 0 6.5 0C4.77609 0 3.1228 0.684822 1.90381 1.90381C0.684822 3.1228 0 4.77609 0 6.5C0 8.22391 0.684822 9.8772 1.90381 11.0962C3.1228 12.3152 4.77609 13 6.5 13C8.05048 13.0011 9.54978 12.4453 10.725 11.434L11.001 11.708V12.5L16.001 17.491L17.49 16L12.502 11H12.5ZM6.5 11C5.30653 11 4.16191 10.5259 3.31799 9.68201C2.47408 8.83809 2 7.69347 2 6.5C2 5.30653 2.47408 4.16191 3.31799 3.31799C4.16191 2.47408 5.30653 2 6.5 2C7.69347 2 8.83809 2.47408 9.68201 3.31799C10.5259 4.16191 11 5.30653 11 6.5C11 7.69347 10.5259 8.83809 9.68201 9.68201C8.83809 10.5259 7.69347 11 6.5 11Z" fill="black"/>
</svg>
